<svg xmlns="http://www.w3.org/2000/svg" version="1.1" xmlns:xlink="http://www.w3.org/1999/xlink" viewBox="0 0 200 200"><rect width="200" height="200" fill="url('#gradient')"></rect><defs><linearGradient id="gradient" gradientTransform="rotate(45 0.5 0.5)"><stop offset="0%" stop-color="#1b2338"></stop><stop offset="100%" stop-color="#284188"></stop></linearGradient></defs><g><g fill="#ffffff" transform="matrix(5.432515687393041,0,0,5.432515687393041,3.352573377387017,127.87064192108747)" stroke="#c8512e" stroke-width="0"><path d="M9.17-4.81L12.58-4.81Q12.51-3.33 11.78-2.19Q11.04-1.05 9.72-0.43Q8.40 0.20 6.70 0.20L6.70 0.20Q3.90 0.20 2.29-1.63Q0.67-3.46 0.67-6.79L0.67-6.79L0.67-7.49Q0.67-9.58 1.40-11.15Q2.13-12.71 3.50-13.57Q4.86-14.42 6.66-14.42L6.66-14.42Q9.25-14.42 10.82-13.06Q12.39-11.70 12.61-9.31L12.61-9.31L9.19-9.31Q9.15-10.61 8.54-11.17Q7.92-11.74 6.66-11.74L6.66-11.74Q5.38-11.74 4.79-10.78Q4.19-9.82 4.16-7.72L4.16-7.72L4.16-6.72Q4.16-4.44 4.73-3.47Q5.30-2.49 6.70-2.49L6.70-2.49Q7.88-2.49 8.51-3.05Q9.13-3.60 9.17-4.81L9.17-4.81ZM13.64-4.82L13.63-5.38Q13.63-6.96 14.25-8.20Q14.86-9.43 16.02-10.10Q17.17-10.76 18.72-10.76L18.72-10.76Q21.09-10.76 22.46-9.29Q23.83-7.82 23.83-5.29L23.83-5.29L23.83-5.18Q23.83-2.71 22.46-1.25Q21.08 0.20 18.74 0.20L18.74 0.20Q16.48 0.20 15.12-1.16Q13.75-2.51 13.64-4.82L13.64-4.82ZM16.93-5.77L16.92-5.18Q16.92-3.71 17.38-3.03Q17.84-2.34 18.74-2.34L18.74-2.34Q20.50-2.34 20.54-5.05L20.54-5.05L20.54-5.38Q20.54-8.22 18.72-8.22L18.72-8.22Q17.07-8.22 16.93-5.77L16.93-5.77ZM24.89-5.24L24.89-5.36Q24.89-6.96 25.42-8.19Q25.95-9.42 26.93-10.09Q27.92-10.76 29.23-10.76L29.23-10.76Q30.88-10.76 31.81-9.65L31.81-9.65L31.92-10.57L34.91-10.57L34.91-0.40Q34.91 1.00 34.26 2.03Q33.61 3.06 32.38 3.61Q31.15 4.16 29.53 4.16L29.53 4.16Q28.37 4.16 27.28 3.72Q26.19 3.28 25.62 2.58L25.62 2.58L26.99 0.64Q27.91 1.73 29.41 1.73L29.41 1.73Q31.60 1.73 31.60-0.52L31.60-0.52L31.60-0.85Q30.65 0.20 29.21 0.20L29.21 0.20Q27.28 0.20 26.08-1.28Q24.89-2.76 24.89-5.24L24.89-5.24ZM28.19-5.16L28.19-5.16Q28.19-3.86 28.68-3.10Q29.17-2.34 30.05-2.34L30.05-2.34Q31.11-2.34 31.60-3.06L31.60-3.06L31.60-7.50Q31.12-8.22 30.07-8.22L30.07-8.22Q29.19-8.22 28.69-7.44Q28.19-6.65 28.19-5.16Z"></path></g></g></svg>